<svg width="19" height="19" viewBox="0 0 19 19" fill="none" xmlns="http://www.w3.org/2000/svg">
<path d="M18.1868 9.33109C18.1869 11.4502 17.4392 13.5015 16.0754 15.1235C14.7116 16.7455 12.8193 17.8343 10.7315 18.198C8.64384 18.5617 6.49475 18.1771 4.66278 17.1119C2.83081 16.0467 1.43348 14.3692 0.716909 12.3748C0.000335768 10.3805 0.0104812 8.19729 0.745558 6.2097C1.48064 4.22212 2.89349 2.55768 4.73528 1.50952C6.57707 0.461369 8.72965 0.0967429 10.8139 0.479866C12.8981 0.86299 14.7803 1.96929 16.129 3.60391C16.1959 3.67924 16.247 3.7673 16.2792 3.86282C16.3113 3.95834 16.3239 4.05936 16.3161 4.15985C16.3084 4.26034 16.2804 4.35823 16.234 4.44768C16.1876 4.53714 16.1236 4.61631 16.0459 4.68048C15.9681 4.74465 15.8783 4.7925 15.7817 4.82116C15.685 4.84982 15.5836 4.85872 15.4835 4.84731C15.3833 4.83591 15.2865 4.80443 15.1988 4.75477C15.1111 4.70511 15.0343 4.63828 14.973 4.55828C13.8699 3.22077 12.3375 2.30672 10.6365 1.97164C8.9355 1.63655 7.17092 1.90113 5.64298 2.72036C4.11504 3.53959 2.9181 4.86286 2.25579 6.46508C1.59348 8.06729 1.50671 9.84948 2.01023 11.5085C2.51375 13.1674 3.57647 14.6007 5.0176 15.5645C6.45873 16.5283 8.18925 16.9631 9.91478 16.7948C11.6403 16.6266 13.2542 15.8657 14.4821 14.6417C15.7099 13.4177 16.4757 11.8061 16.6493 10.0811H9.18677C8.98786 10.0811 8.79709 10.0021 8.65644 9.86142C8.51579 9.72077 8.43677 9.53001 8.43677 9.33109C8.43677 9.13218 8.51579 8.94142 8.65644 8.80076C8.79709 8.66011 8.98786 8.58109 9.18677 8.58109H17.4368C17.6357 8.58109 17.8264 8.66011 17.9671 8.80076C18.1078 8.94142 18.1868 9.13218 18.1868 9.33109Z" fill="black"/>
</svg>
